<svg width="36" height="35" viewBox="0 0 36 35" fill="none" xmlns="http://www.w3.org/2000/svg">
<g clip-path="url(#clip0)">
<path d="M15.1306 31.6941C15.1306 31.4109 14.8945 31.1814 14.6033 31.1814H5.22647C4.93524 31.1814 4.69913 31.4109 4.69913 31.6941C4.69913 31.9772 4.93524 32.2068 5.22647 32.2068H14.6033C14.8945 32.2068 15.1306 31.9772 15.1306 31.6941Z" fill="#18616A"/>
<path d="M25.8789 1.42769C22.9357 1.42769 20.2923 2.69972 18.4996 4.70791C17.5511 3.78287 16.5724 3.65579 15.2763 3.70118V1.92814C15.2763 0.864951 14.3866 0 13.2931 0H6.53667C5.44317 0 4.55351 0.864951 4.55351 1.92814V3.70125H3.79048C1.89422 3.70125 0.351425 5.20112 0.351425 7.04478V31.6565C0.351425 33.5001 1.89415 35 3.79048 35H10.6464C10.9377 35 11.1738 34.7705 11.1738 34.4873C11.1738 34.2042 10.9377 33.9746 10.6464 33.9746H3.79048C2.47578 33.9746 1.40611 32.9347 1.40611 31.6565V25.7012H7.51859L6.93218 28.1999C6.81258 28.7095 7.51824 29.076 7.86846 28.6212L10.1166 25.7013H18.4236V31.6565C18.4236 32.9347 17.354 33.9747 16.0392 33.9747H13.6572C13.366 33.9747 13.1299 34.2042 13.1299 34.4874C13.1299 34.7705 13.366 35.0001 13.6572 35.0001H16.0392C17.9355 35.0001 19.4783 33.5002 19.4783 31.6565V18.0958C25.6262 23.4145 35.7173 19.0043 35.6482 10.9256C35.6483 5.68853 31.2658 1.42769 25.8789 1.42769ZM5.6082 1.92814C5.6082 1.43035 6.02473 1.02539 6.53667 1.02539H13.2931C13.8051 1.02539 14.2216 1.43035 14.2216 1.92814V3.70125H5.6082V1.92814ZM10.9062 24.6758L16.0204 18.0333C16.227 17.591 16.0862 17.3177 15.5983 17.2134H11.3224L12.8976 10.5013C13.0212 9.97432 12.2944 9.64729 11.9613 10.08L8.58586 14.4642C8.41135 14.6908 8.45888 15.0121 8.69203 15.1819C8.92519 15.3515 9.25573 15.3053 9.43024 15.0786L11.3167 12.6285L10.1472 17.612C10.1116 17.9813 10.283 18.1903 10.6613 18.2387H14.5448L8.51337 26.0726L9.68288 21.0891C9.71846 20.7197 9.5471 20.5108 9.16875 20.4624H5.28504L7.75934 17.2487C7.93385 17.022 7.88632 16.7007 7.65317 16.531C7.42001 16.3613 7.08947 16.4076 6.91496 16.6342L3.80939 20.6678C3.60282 21.1102 3.74358 21.3835 4.23155 21.4877H8.50739L7.75927 24.6758H1.40611V7.04478C1.40611 5.76659 2.47571 4.72664 3.79048 4.72664H16.0393C16.741 4.72664 17.3936 5.02168 17.8436 5.52911C15.3399 8.85473 15.6168 14.0068 18.4237 17.0575V24.6759L10.9062 24.6758ZM25.8789 19.3984C21.0736 19.3984 17.1642 15.5976 17.1642 10.9257C17.6022 -0.298936 34.1572 -0.295927 34.5936 10.9259C34.5936 15.5976 30.6842 19.3984 25.8789 19.3984Z" fill="#18616A"/>
<path d="M25.7199 16.4262H24.8974L26.12 14.602C26.2964 14.1673 26.1491 13.9031 25.6782 13.8094H23.9796C23.2826 13.8303 23.2827 14.814 23.9796 14.8348H24.7052L23.4826 16.659C23.3063 17.0937 23.4535 17.358 23.9244 17.4516H25.7199C26.4168 17.4308 26.4168 16.4471 25.7199 16.4262Z" fill="#18616A"/>
<path d="M26.2292 11.3323H22.9503L26.572 5.9284C26.7484 5.4937 26.6011 5.22949 26.1302 5.13584H22.108C21.8167 5.13584 21.5807 5.36539 21.5807 5.64854C21.5807 5.93168 21.8167 6.16123 22.108 6.16123H25.1572L21.5355 11.5652C21.3592 11.9999 21.5064 12.2641 21.9773 12.3577H26.2292C26.9259 12.337 26.9263 11.3532 26.2292 11.3323Z" fill="#18616A"/>
<path d="M30.5375 13.6517H28.726L30.9145 10.3863C31.0909 9.95156 30.9435 9.68735 30.4727 9.5937H27.8386C27.1418 9.61455 27.1415 10.5982 27.8386 10.6191H29.4996L27.3111 13.8845C27.1349 14.3192 27.2821 14.5835 27.753 14.6771H30.5375C30.8288 14.6771 31.0648 14.4476 31.0648 14.1644C31.0648 13.8813 30.8287 13.6517 30.5375 13.6517Z" fill="#18616A"/>
</g>
<defs>
<clipPath id="clip0">
<rect width="36" height="35" fill="white"/>
</clipPath>
</defs>
</svg>
