<svg width="38" height="38" viewBox="0 0 38 38" fill="none" xmlns="http://www.w3.org/2000/svg">
<g clip-path="url(#clip0)">
<path d="M29.4171 25.9396C29.3053 26.0198 29.1762 26.0583 29.0484 26.0583C28.4364 26.0583 28.1786 25.2692 28.6787 24.9103C31.2746 23.0479 31.116 18.6161 27.1936 17.6156C25.6529 17.2226 24.5319 15.953 24.3379 14.3811L23.1747 4.95959C22.9141 2.8497 21.121 1.26676 18.9978 1.26676C16.874 1.26676 15.0755 2.90036 14.8105 5.04621L13.6557 14.4001C13.6129 14.7473 13.2964 14.9938 12.9495 14.9511C12.6023 14.9083 12.3556 14.592 12.3985 14.2449L13.5533 4.89095C13.8953 2.12101 16.22 0.0183956 18.9608 0.000107224C21.7146 -0.0214272 24.0888 2.0264 24.4318 4.80426L25.5949 14.2259C25.7247 15.2762 26.4751 16.1249 27.5067 16.3881C32.5039 17.6629 32.8538 23.4739 29.4171 25.9396ZM25.0581 25.1613C25.2082 24.8454 25.0738 24.4676 24.7579 24.3174C24.4418 24.1673 24.0639 24.3018 23.914 24.6177C23.0168 26.5057 21.0871 27.7257 18.998 27.7257C16.9087 27.7257 14.979 26.5057 14.0819 24.6177C13.9318 24.3018 13.554 24.1673 13.238 24.3174C12.9221 24.4676 12.7877 24.8454 12.9378 25.1613C13.0232 25.3411 13.1171 25.5153 13.2172 25.6849H11.8C9.54475 25.6849 7.65503 23.8881 7.58758 21.6796C7.52456 19.6158 8.68892 18.1332 10.782 17.6117C11.1215 17.5271 11.3281 17.1835 11.2435 16.844C11.159 16.5046 10.815 16.2979 10.4759 16.3825C7.79295 17.0509 6.23993 19.0456 6.32148 21.7182C6.4111 24.6509 8.86729 26.9515 11.8 26.9515H14.1859C17.4964 30.3487 23.0791 29.3259 25.0581 25.1613ZM26.7672 28.1062C26.548 27.8335 26.1494 27.7903 25.8767 28.0093C25.6041 28.2285 25.5608 28.6272 25.7799 28.8998L28.4414 32.2107C29.333 33.3195 29.2465 34.9144 28.2404 35.9205C27.1559 37.0051 25.3911 37.0052 24.3066 35.9205C23.3005 34.9144 23.2141 33.3195 24.1056 32.2107C24.3247 31.938 24.2814 31.5394 24.0088 31.3202C23.736 31.1009 23.3375 31.1443 23.1182 31.417C20.9788 34.0784 22.8993 38.0004 26.2735 38.0001C29.6475 37.9999 31.5684 34.0785 29.4288 31.417L26.7672 28.1062Z" fill="#18616A"/>
</g>
<defs>
<clipPath id="clip0">
<rect width="38" height="38" fill="white"/>
</clipPath>
</defs>
</svg>
