<svg width="38" height="39" viewBox="0 0 38 39" fill="none" xmlns="http://www.w3.org/2000/svg">
<g clip-path="url(#clip0)">
<path d="M0.25235 26.1955C1.58829 28.3359 4.15626 31.8398 8.49805 34.6582C10.977 36.2654 14.2945 38.4135 18.7848 38.4516C25.5387 38.5049 30.5707 33.7441 33.6137 30.8572C35.5211 29.0519 36.8793 27.3228 37.7774 26.0812C37.3098 25.5328 26.3996 13.033 15.9496 15.6381C12.7953 16.4226 8.6168 18.8525 5.5293 21.2291C3.17657 23.042 1.43243 24.8473 0.25235 26.1955Z" stroke="#18616A" stroke-miterlimit="10"/>
<path d="M0.25235 26.1955C4.04493 24.5578 10.6801 22.2803 19.1856 22.2879C27.4981 22.2955 33.9996 24.4816 37.7774 26.0813" stroke="#18616A" stroke-miterlimit="10"/>
<path d="M14 6.1579H18.0152L14 11.9393H18.5496" stroke="#18616A" stroke-miterlimit="10" stroke-linecap="round" stroke-linejoin="round"/>
<path d="M21 1H26.173L21 9.34082H26.8559" stroke="#18616A" stroke-miterlimit="10" stroke-linecap="round" stroke-linejoin="round"/>
<path d="M10.5836 23.0648C9.88593 28.7549 14.1758 33.4928 18.7477 33.5537C23.4309 33.6146 27.8914 28.7777 27.127 22.9582" stroke="#18616A" stroke-miterlimit="10"/>
<path d="M15.0664 22.4631C14.2945 24.1922 14.5469 26.3859 15.868 27.7646C17.6418 29.608 20.9742 29.4557 22.3102 27.14C23.1043 25.7613 23.2082 23.8646 22.5402 22.4098" stroke="#18616A" stroke-miterlimit="10"/>
</g>
<defs>
<clipPath id="clip0">
<rect width="38" height="39" fill="white"/>
</clipPath>
</defs>
</svg>
