<svg width="38" height="38" viewBox="0 0 38 38" fill="none" xmlns="http://www.w3.org/2000/svg">
<g clip-path="url(#clip0)">
<path d="M27.2333 17.7333H26.6V16.4667H27.2333C28.2827 16.4667 29.1333 15.616 29.1333 14.5667V3.68347C30.1208 3.33569 30.6393 2.25324 30.2915 1.2658C30.0239 0.506116 29.3055 -0.00150071 28.5 3.46111e-06H9.50001C8.45311 -0.00197571 7.60286 0.845108 7.60088 1.89201C7.59929 2.69745 8.10699 3.41589 8.86667 3.68347V14.5667C8.86667 15.616 9.71732 16.4667 10.7667 16.4667H11.4V17.7333H10.7667C9.01867 17.7354 7.60206 19.152 7.60001 20.9C7.60001 21.2498 7.88358 21.5333 8.23334 21.5333C8.22091 25.7655 10.7033 29.6075 14.5667 31.3354V37.3667C14.5667 37.7164 14.8502 38 15.2 38H22.8C23.1498 38 23.4333 37.7164 23.4333 37.3667V31.3354C27.2961 29.6069 29.7783 25.7653 29.7667 21.5333C30.1164 21.5333 30.4 21.2498 30.4 20.9C30.3979 19.152 28.9813 17.7354 27.2333 17.7333ZM8.86667 1.9C8.86667 1.55024 9.15025 1.26667 9.50001 1.26667H28.5C28.8498 1.26667 29.1333 1.55024 29.1333 1.9C29.1333 2.24976 28.8498 2.53334 28.5 2.53334H9.50001C9.15025 2.53334 8.86667 2.24976 8.86667 1.9ZM10.7667 15.2C10.4169 15.2 10.1333 14.9164 10.1333 14.5667V3.8H27.8667V14.5667C27.8667 14.9164 27.5831 15.2 27.2333 15.2H10.7667ZM25.3333 16.4667V17.7333H12.6667V16.4667H25.3333ZM15.8333 36.7333V31.8263L15.8922 31.8421C15.9556 31.8611 16.0189 31.8757 16.0822 31.8934C16.314 31.9593 16.5481 32.0171 16.7846 32.0669C16.898 32.091 17.012 32.1106 17.126 32.1303C17.3217 32.1645 17.5186 32.1936 17.7169 32.2158C17.8372 32.2303 17.9563 32.2455 18.0779 32.2557C18.3359 32.2772 18.5944 32.2895 18.8537 32.2924C18.9018 32.2924 18.9487 32.2994 18.9968 32.2994C19.045 32.2994 19.0925 32.293 19.1406 32.2924C19.3999 32.2895 19.6583 32.2772 19.9158 32.2557C20.0374 32.2455 20.1577 32.2297 20.2787 32.2158C20.475 32.1923 20.6701 32.1645 20.8645 32.1309C20.9804 32.1106 21.0963 32.0897 21.2116 32.0676C21.4421 32.0201 21.6695 31.9624 21.895 31.8991C21.9653 31.8795 22.0368 31.8636 22.1071 31.8427C22.1255 31.837 22.1451 31.8332 22.1635 31.8275L22.1667 36.7333H15.8333ZM22.5593 30.3398C20.8546 31.0272 18.9876 31.2072 17.183 30.8579C16.5851 30.7429 16.0002 30.5687 15.4369 30.3379C11.8406 28.897 9.48766 25.4075 9.50001 21.5333H28.5C28.512 25.409 26.1575 28.8995 22.5593 30.3398ZM8.97497 20.2667C9.24438 19.5081 9.96171 19.001 10.7667 19H27.2333C28.0383 19.001 28.7556 19.5081 29.025 20.2667H8.97497Z" fill="#18616A"/>
<path d="M16.4667 5.69998H14.4501C14.1004 4.71063 13.0147 4.19217 12.0255 4.54201C11.0362 4.89185 10.5177 5.9773 10.8674 6.96665C11.2172 7.956 12.3028 8.47446 13.2921 8.12462C13.8332 7.93335 14.2588 7.50767 14.45 6.96665H16.4667C16.8164 6.96665 17.1 6.68307 17.1 6.33331C17.1 5.98356 16.8164 5.69998 16.4667 5.69998ZM12.6667 6.96665C12.3169 6.96665 12.0333 6.68307 12.0333 6.33331C12.0333 5.98356 12.3169 5.69998 12.6667 5.69998C13.0164 5.69998 13.3 5.98356 13.3 6.33331C13.3 6.68307 13.0164 6.96665 12.6667 6.96665Z" fill="#18616A"/>
</g>
<defs>
<clipPath id="clip0">
<rect width="38" height="38" fill="white"/>
</clipPath>
</defs>
</svg>
