<svg width="43" height="45" viewBox="0 0 43 45" fill="none" xmlns="http://www.w3.org/2000/svg">
<path d="M11.4103 39.3063H13.5237C14.8687 39.3063 16.1116 38.7358 17.0227 37.6999C17.8943 36.7089 18.354 35.4583 18.2622 33.9063L17.894 27.849C17.68 27.9837 17.4593 28.0865 17.2418 28.2038C16.7606 28.4629 16.2556 28.7341 15.4328 28.9891C15.3772 30.2129 14.8574 32.0195 13.1064 32.4424C12.3308 32.6295 12.0876 31.4174 12.8402 31.2354C13.8375 30.9948 14.1321 29.9814 14.2175 29.2741C13.3908 29.4156 12.7285 29.4166 12.7205 29.4167C12.3933 29.4167 12.1285 29.1396 12.1285 28.7977C12.1285 28.4558 12.3933 28.1787 12.7205 28.1787L12.7369 28.1782C15.4159 28.1407 17.954 26.6974 19.8771 24.5717C20.8292 23.5194 22.4432 23.5194 23.3955 24.5717C26.8734 28.4165 30.4346 28.1514 30.5524 28.1787C30.8791 28.1787 31.1441 28.4558 31.1441 28.7979C31.1441 29.1396 30.8791 29.4172 30.5524 29.4172C30.5334 29.4157 29.9348 29.4247 29.0986 29.2859C29.1856 29.992 29.4829 30.9963 30.4744 31.2354C31.227 31.4174 30.9844 32.6296 30.2083 32.4424C28.463 32.0212 27.9419 30.2254 27.8831 29.002C27.3943 28.8529 26.9145 28.6599 26.4416 28.4305C26.4337 28.4272 25.4349 27.8852 25.2996 27.7983C24.8651 34.9204 24.9367 33.7883 24.926 33.918C24.6975 36.8052 26.8652 39.3058 29.6658 39.3058H31.5464C31.8732 39.3058 32.1384 39.5835 32.1384 39.9251C32.1384 40.2675 31.8732 40.5446 31.5464 40.5446H29.6658C26.1997 40.5446 23.4634 37.4411 23.7465 33.8219L24.1654 26.9532C23.6083 26.4983 23.0612 26.0037 22.5363 25.423C22.3009 25.1629 21.9813 25.0198 21.6361 25.0198C20.7789 25.0198 20.8529 25.5602 19.0298 27.0261L19.4432 33.8219C19.5782 35.5467 19.0134 37.2656 17.8932 38.5387C16.7721 39.8136 15.1795 40.5446 13.5237 40.5446H11.4103C11.0835 40.5446 10.8187 40.2675 10.8187 39.9251C10.8187 39.5835 11.0835 39.3063 11.4103 39.3063Z" fill="#18616A"/>
<path d="M1.47683 37.879C2.71257 28.2209 3.87979 19.0986 9.6085 15.1255C10.3674 14.5991 11.2534 14.3208 12.1706 14.3208C14.53 14.3208 18.178 16.1955 18.3833 18.7854L18.5139 20.4357C18.9461 19.7801 19.2693 19.2989 19.2693 18.5037V4.57784C19.2693 4.23561 19.5343 3.9585 19.8611 3.9585C20.1878 3.9585 20.4528 4.23561 20.4528 4.57784V18.5037C20.4528 19.1848 20.2731 19.8496 19.9333 20.4267C19.5191 21.1304 18.8987 21.9947 18.4953 22.478C17.5857 23.5672 16.7299 24.2478 15.8605 24.7584C15.8193 24.7827 15.7804 24.8206 15.7386 24.8439C15.7148 24.8614 15.5846 24.927 15.5379 24.9394C14.6996 25.3778 13.6227 25.7015 12.6963 25.7015C12.6091 25.7015 12.5464 25.6409 12.4713 25.6047C12.4081 25.5748 12.3311 25.5744 12.2824 25.5235C11.9096 25.1407 12.1619 24.4704 12.6887 24.4631C12.9721 24.459 13.2504 24.3959 13.5297 24.3425C12.9878 23.9459 12.4386 23.3059 12.1678 22.2576C12.0825 21.9273 12.2692 21.5875 12.5845 21.498C12.9001 21.4091 13.2248 21.6042 13.3102 21.9342C13.7015 23.4489 14.8705 23.6936 15.1894 23.7342C16.046 23.2516 16.7972 22.5912 17.4387 21.8524L17.2035 18.8876C17.061 17.0827 14.0108 15.5592 12.1706 15.5592C11.4868 15.5592 10.8266 15.7662 10.2624 16.1578C4.98195 19.8204 3.84916 28.672 2.65004 38.0433L2.6303 38.1956C2.59399 38.48 2.67341 38.7553 2.85374 38.9707C3.03454 39.1873 3.28497 39.3063 3.5594 39.3063H8.80651C9.13369 39.3063 9.39849 39.5836 9.39849 39.9255C9.39849 40.2675 9.13369 40.5448 8.80651 40.5448H3.5594C2.94753 40.5448 2.36598 40.2683 1.96317 39.7865C1.56051 39.3048 1.3764 38.6653 1.45709 38.0312L1.47683 37.879Z" fill="#18616A"/>
<path d="M32.9268 16.1578C32.3624 15.7662 31.7029 15.5592 31.0184 15.5592C29.1785 15.5592 26.1286 17.0827 25.9855 18.8876L25.7582 21.7594C25.9634 21.9995 26.1744 22.1935 26.3835 22.4015C26.8922 22.9072 26.6712 22.7862 27.6006 23.4176C27.7561 23.5232 27.9088 23.6557 28.0662 23.745C28.3035 23.7225 29.5936 23.5242 30.0046 21.9342C30.0899 21.6042 30.4147 21.4092 30.7302 21.498C31.0457 21.5875 31.2325 21.9273 31.1471 22.2576C30.8756 23.3076 30.3253 23.9481 29.7825 24.345C30.0492 24.3931 30.314 24.4592 30.5838 24.4631C31.1081 24.4704 31.3645 25.1397 30.9898 25.5239C30.9528 25.5619 30.8925 25.5582 30.847 25.585C30.7536 25.6404 30.6801 25.7033 30.5677 25.7015C29.7026 25.6893 28.2968 25.2819 27.5633 24.8753C25.7716 23.8818 24.2942 22.0529 23.338 20.4273C22.999 19.8508 22.8199 19.1865 22.8199 18.5063V4.57784C22.8199 4.23561 23.0849 3.9585 23.4114 3.9585C23.7384 3.9585 24.0032 4.23561 24.0032 4.57784V18.5063C24.0032 19.5047 24.5371 20.0311 24.6893 20.2665L24.8063 18.7854C25.0114 16.1955 28.6593 14.3208 31.0187 14.3208C31.9363 14.3208 32.8222 14.5989 33.5811 15.1255C39.6621 19.3435 40.6752 29.7738 41.7321 38.0317C41.9021 39.3613 40.9116 40.5448 39.6302 40.5448H34.9392C34.6124 40.5448 34.3476 40.2675 34.3476 39.9255C34.3476 39.5836 34.6124 39.3063 34.9392 39.3063H39.6302C39.904 39.3063 40.1549 39.1873 40.3354 38.9713C40.679 38.5605 40.537 38.1127 40.5396 38.0431C39.3405 28.6718 38.2077 19.8202 32.9268 16.1578Z" fill="#18616A"/>
</svg>
