<svg width="38" height="38" viewBox="0 0 38 38" fill="none" xmlns="http://www.w3.org/2000/svg">
<path d="M29.8953 31.4614C28.7449 31.4614 27.832 30.9938 27.3274 30.6672C28.1141 29.8879 29.1012 29.7989 29.1457 29.7989C29.45 29.7766 29.6875 29.5168 29.6652 29.2051C29.643 28.9008 29.3832 28.6633 29.0715 28.6856C28.9973 28.693 27.1789 28.8266 26.0656 30.4446C25.1453 31.7731 24.4031 32.6489 22.5477 32.6489C20.6922 32.6489 19.9426 31.7731 19.0297 30.4446C17.909 28.8266 16.098 28.693 16.0238 28.6856C15.7195 28.6633 15.4523 28.9008 15.4301 29.2051C15.4078 29.5094 15.6379 29.7766 15.9496 29.7989C15.9941 29.7989 16.9887 29.8879 17.7754 30.6672C17.2781 30.9938 16.3652 31.4614 15.2074 31.4614C14.3687 31.4614 13.7156 31.209 13.2629 30.7043C12.7285 30.1032 12.4539 29.1383 12.4539 27.8395C12.4539 27.216 12.5504 26.6371 12.7434 26.0508C12.8398 25.7614 12.684 25.4422 12.3945 25.3457C12.1051 25.2492 11.7859 25.4051 11.6895 25.6946C11.4594 26.3848 11.3406 27.1047 11.3406 27.8395C11.3406 29.4278 11.7043 30.6375 12.4316 31.4465C13.0922 32.1887 14.0496 32.5746 15.2074 32.5746C16.6918 32.5746 17.8422 31.966 18.4582 31.5504C19.3785 32.7973 20.4324 33.7621 22.5551 33.7621C24.6777 33.7621 25.7316 32.7973 26.652 31.5504C27.268 31.966 28.4184 32.5746 29.9027 32.5746C30.207 32.5746 30.4594 32.3223 30.4594 32.018C30.4594 31.7137 30.207 31.4614 29.8953 31.4614Z" fill="#18616A"/>
<path d="M31.0754 22.0801C30.6523 21.6051 30.2887 21.1895 30.1031 20.8407C29.4351 19.5864 28.9601 17.345 28.4555 14.9774C27.409 10.0418 26.2215 4.44574 22.5551 4.44574C20.9668 4.44574 19.7125 5.49222 18.718 7.63715C18.5918 7.91918 18.7105 8.24574 18.9926 8.37933C19.2746 8.51293 19.6012 8.38675 19.7348 8.10472C20.9074 5.55902 22.1543 5.55902 22.5551 5.55902C25.316 5.55902 26.407 10.6875 27.3644 15.2075C27.884 17.6567 28.3738 19.9723 29.1234 21.3676C29.3758 21.8352 29.7765 22.2953 30.2441 22.8223C31.3203 24.0395 32.6562 25.5461 32.6562 27.8395C32.6562 29.2868 32.3223 30.311 31.6617 30.8899C31.4316 31.0903 31.4094 31.4465 31.6097 31.6766C31.7211 31.8028 31.8769 31.8696 32.0328 31.8696C32.1664 31.8696 32.2926 31.825 32.4039 31.7286C33.3168 30.927 33.7769 29.6207 33.7769 27.8395C33.7621 25.1231 32.2109 23.3641 31.0754 22.0801Z" fill="#18616A"/>
<path d="M12.9215 24.3586C13.018 24.4254 13.1367 24.4625 13.2481 24.4625C13.4188 24.4625 13.5895 24.3809 13.7008 24.2324C14.0719 23.7129 14.4875 23.2379 14.8586 22.8223C15.3262 22.2879 15.7344 21.8352 15.9793 21.3676C16.7215 19.9723 17.2188 17.6567 17.7383 15.2074C18.102 13.4856 18.4805 11.6969 18.9703 10.1234C19.0594 9.82657 18.8961 9.51485 18.5992 9.42579C18.3024 9.33673 17.9906 9.50001 17.9016 9.79689C17.3969 11.4223 17.0184 13.2258 16.6473 14.9774C16.1426 17.3449 15.6676 19.5863 14.9996 20.8406C14.8141 21.1895 14.4504 21.6051 14.0274 22.0801C13.6414 22.518 13.2035 23.0078 12.8027 23.5793C12.6172 23.8317 12.6766 24.1805 12.9215 24.3586Z" fill="#18616A"/>
<path d="M9.11406 20.811C9.74492 20.2617 10.1086 19.4676 10.1086 18.6364C10.1086 17.7977 9.74492 17.0035 9.11406 16.4618C8.88398 16.2614 8.52773 16.2836 8.32734 16.5137C8.12695 16.7438 8.14922 17.1 8.3793 17.3004C8.76523 17.6344 8.98789 18.1243 8.98789 18.6364C8.98789 19.1485 8.76523 19.6383 8.3793 19.9723C7.74844 20.5215 7.38477 21.3157 7.38477 22.1469C7.38477 22.9782 7.74844 23.7797 8.3793 24.3215C8.4832 24.4106 8.6168 24.4551 8.74297 24.4551C8.89883 24.4551 9.05469 24.3883 9.16602 24.2621C9.36641 24.0321 9.34414 23.6758 9.11406 23.4754C8.72813 23.1414 8.50547 22.6516 8.50547 22.1395C8.50547 21.6274 8.72813 21.1449 9.11406 20.811Z" fill="#18616A"/>
<path d="M5.75938 15.3188C6.38282 14.7695 6.74649 13.9754 6.74649 13.1367C6.74649 12.2981 6.38282 11.5113 5.75196 10.9621C5.52188 10.7617 5.16563 10.784 4.96524 11.0141C4.76485 11.2441 4.78711 11.6004 5.01719 11.8008C5.40313 12.1348 5.62579 12.6246 5.62579 13.1367C5.62579 13.6488 5.40313 14.1387 5.01719 14.4727C4.38633 15.0219 4.02266 15.816 4.02266 16.6473C4.02266 17.4859 4.38633 18.2801 5.01719 18.8219C5.1211 18.9109 5.25469 18.9555 5.38086 18.9555C5.53672 18.9555 5.69258 18.8887 5.80391 18.7625C6.0043 18.5324 5.98204 18.1762 5.75196 17.9758C5.36602 17.6418 5.14336 17.152 5.14336 16.6398C5.15079 16.1426 5.36602 15.6527 5.75938 15.3188Z" fill="#18616A"/>
<path d="M12.0605 15.2594C12.2609 15.0293 12.2387 14.6731 12.0086 14.4727C11.6227 14.1387 11.4 13.6489 11.4 13.1367C11.4 12.6246 11.6227 12.1348 12.0086 11.8008C12.6395 11.2516 13.0031 10.4574 13.0031 9.6262C13.0031 8.78753 12.6395 8.00081 12.0086 7.45159C11.7785 7.2512 11.4223 7.27346 11.2219 7.50354C11.0215 7.73362 11.0437 8.08987 11.2738 8.29026C11.6598 8.62425 11.8824 9.11409 11.8824 9.6262C11.8824 10.1383 11.6598 10.6282 11.2738 10.9621C10.643 11.5114 10.2793 12.3055 10.2793 13.1367C10.2793 13.9754 10.643 14.7621 11.2738 15.3114C11.3777 15.4004 11.5113 15.4449 11.6375 15.4449C11.7934 15.4524 11.9492 15.3856 12.0605 15.2594Z" fill="#18616A"/>
<path d="M4.03087 3.76291L34.2602 33.9848" stroke="#18616A" stroke-miterlimit="10" stroke-linecap="round" stroke-linejoin="round"/>
</svg>
