<svg width="44" height="44" viewBox="0 0 44 44" fill="none" xmlns="http://www.w3.org/2000/svg">
<path d="M28.3164 7.60548C26.8984 7.04688 25.4375 6.87501 23.9766 6.78907C19.1641 6.70313 14.5234 8.85157 11.6016 13.0625C9.88281 15.5547 9.79687 18.3906 9.53906 21.2266C9.28125 23.2891 8.07812 24.8359 6.875 26.6406C6.1875 27.6719 6.53125 28.875 7.5625 29.3906C8.42187 29.7344 9.28125 29.5625 10.1406 29.7344C10.2266 29.7344 10.3984 29.8203 10.3984 29.9063C10.5703 32.3125 9.79687 35.2344 11.7734 37.125C13.3203 38.5 15.4687 38.0703 17.3594 38.3281C17.9609 38.4141 18.5625 38.586 18.9922 39.0156C19.9375 40.0469 20.1094 41.5078 19.8859 42.9086C21.5789 42.9 23.2719 42.8914 24.9648 42.8914C27.3883 42.8828 29.8203 42.8828 32.2438 42.8828C32.2266 41.6195 32.2094 40.3649 32.1922 39.1016" stroke="#18616A" stroke-miterlimit="10" stroke-linecap="round" stroke-linejoin="round"/>
<path d="M33.9281 11.3609C37.9156 15.2625 38.7148 21.6219 36.3945 26.5976C35.3633 28.7976 33.8336 30.7398 32.9227 33C32.5274 33.9883 32.2609 35.0281 32.2523 36.1023" stroke="#18616A" stroke-miterlimit="10" stroke-linecap="round" stroke-linejoin="round"/>
<path d="M28.6602 6.90078C29.0469 5.42265 29.4422 3.93593 29.8289 2.45781C31.7711 2.45781 33.7219 2.45781 35.6641 2.45781C35.0367 3.99609 34.4094 5.52578 33.7734 7.06406C34.8734 7.12421 35.9649 7.18437 37.0649 7.23593C34.5383 10.3469 32.0031 13.4664 29.4766 16.5773C29.975 14.3258 30.4734 12.0742 30.9719 9.83125C29.9492 9.82265 28.9266 9.81406 27.9039 9.80546C28.1445 8.83437 28.4024 7.87187 28.6602 6.90078Z" stroke="#18616A" stroke-miterlimit="10" stroke-linejoin="round"/>
<path d="M20.2469 11.4984C21.8367 11.4984 23.4266 11.4984 25.0078 11.4984C24.4922 12.7531 23.9852 14.0078 23.4695 15.2625C24.3633 15.3141 25.257 15.357 26.1594 15.4086C24.0969 17.9524 22.0258 20.4875 19.9633 23.0313C20.3672 21.1922 20.7797 19.3617 21.1836 17.5227C20.35 17.5141 19.5164 17.5055 18.6742 17.5055C19.1984 15.4945 19.7227 13.5008 20.2469 11.4984Z" stroke="#18616A" stroke-miterlimit="10" stroke-linejoin="round"/>
</svg>
