<svg width="38" height="38" viewBox="0 0 38 38" fill="none" xmlns="http://www.w3.org/2000/svg">
<g clip-path="url(#clip0)">
<path d="M31.708 26.2955C31.9604 28.2131 30.5046 29.9288 28.5797 30.0019L25.675 30.1122L26.9532 37.255C27.0225 37.6422 26.7253 37.9999 26.329 37.9999C26.028 37.9999 25.7612 37.7847 25.7063 37.4781C24.1957 29.0365 24.2298 29.4952 24.3496 29.2396C24.4165 29.0957 24.5408 28.9744 24.6996 28.9148C24.8383 28.8623 24.6103 28.885 28.5317 28.7361C29.7174 28.691 30.6074 27.6401 30.4522 26.4607C30.4066 26.1139 30.6507 25.7958 30.9975 25.7501C31.3446 25.7048 31.6623 25.9487 31.708 26.2955ZM34.9586 19.9902L34.1607 14.8962C34.1338 6.67777 27.4394 0 19.2148 0C10.9323 0 4.26858 6.66139 4.26874 14.9462C4.26874 18.578 5.58726 22.0794 7.98141 24.8052C8.10665 24.9478 8.28161 25.0207 8.45752 25.0207C8.99815 25.0207 9.29328 24.3794 8.93315 23.9694C6.74206 21.4748 5.5354 18.2703 5.5354 14.9462C5.5354 7.36351 11.6303 1.26666 19.2148 1.26666C26.7576 1.26666 32.8942 7.40326 32.8942 14.9461C32.8942 15.0228 32.8478 14.6994 33.7073 20.1861C33.8121 20.8558 33.4006 21.5038 32.7498 21.6936L30.4546 22.3631C30.1188 22.461 29.926 22.8127 30.024 23.1484C30.1219 23.4843 30.4736 23.6772 30.8093 23.579L33.1045 22.9095C34.3646 22.5421 35.1616 21.2871 34.9586 19.9902ZM11.107 26.1086C10.7572 26.1086 10.4736 26.3922 10.4736 26.742V37.3666C10.4736 37.7163 10.7572 37.9999 11.107 37.9999C11.4567 37.9999 11.7403 37.7163 11.7403 37.3666V26.742C11.7403 26.3922 11.4567 26.1086 11.107 26.1086ZM22.3521 32.2304L21.5281 32.085C21.5128 31.0707 21.0903 30.1537 20.4163 29.4907L21.0199 28.6245C21.2199 28.3376 21.1494 27.9428 20.8624 27.7428C20.5753 27.5427 20.1807 27.6133 19.9807 27.9003L19.3759 28.7681C18.4124 28.3186 17.3041 28.3057 16.3344 28.726L15.8056 27.9162C15.6143 27.6233 15.222 27.541 14.9291 27.7322C14.6362 27.9235 14.5538 28.3159 14.7451 28.6087L15.275 29.4202C13.5718 31.0069 13.7268 33.7263 15.5777 35.1174L15.2642 35.7312C15.0484 36.154 15.3583 36.6528 15.8277 36.6528C16.0581 36.6528 16.2803 36.5266 16.3923 36.3074L16.7049 35.6954C17.6427 35.9872 18.6529 35.8903 19.5017 35.4557C19.8132 35.2964 19.9363 34.9148 19.777 34.6034C19.6176 34.2922 19.2361 34.1687 18.9247 34.3282C17.3027 35.1582 15.3546 33.9762 15.3546 32.1417C15.3546 30.7884 16.4555 29.6875 17.8087 29.6875C19.3017 29.6875 20.4625 31.0193 20.2347 32.5158C20.1826 32.8572 20.4148 33.1898 20.7791 33.2388C20.8158 33.2458 22.0951 33.4714 22.132 33.4779C22.4768 33.5387 22.8051 33.3086 22.8658 32.9644C22.9265 32.6197 22.6965 32.2912 22.3521 32.2304ZM7.27817 27.187C7.07622 26.8172 6.57391 26.743 6.27426 27.0425L5.18865 28.1282L4.19693 26.3431C4.02704 26.0374 3.6415 25.9272 3.33576 26.0971C3.03002 26.267 2.91982 26.6526 3.08971 26.9583L4.48922 29.4773C4.69307 29.8444 5.19277 29.9151 5.49067 29.6175L6.57145 28.5367L7.50966 30.2567C7.67694 30.5633 8.06121 30.6772 8.36893 30.5094C8.67602 30.3419 8.78914 29.9572 8.62163 29.6502L7.27817 27.187ZM7.29519 33.3066L5.64719 34.2055C5.27597 34.408 5.20433 34.9109 5.50263 35.2094L6.03265 35.7393L5.08107 36.2679C4.77532 36.4378 4.66512 36.8233 4.83502 37.1291C5.00507 37.4352 5.39084 37.5448 5.69619 37.3751L7.38172 36.4388C7.74953 36.2346 7.81912 35.7346 7.52201 35.4374L6.99674 34.9122L7.90177 34.4187C8.20885 34.2511 8.32198 33.8664 8.15447 33.5594C7.98695 33.2522 7.6022 33.1392 7.29519 33.3066ZM31.3279 35.4763L30.3763 34.9477L30.9063 34.4177C31.2053 34.1185 31.1322 33.6158 30.7617 33.4138L29.1137 32.5149C28.8066 32.3476 28.4219 32.4606 28.2544 32.7676C28.087 33.0747 28.2001 33.4594 28.5071 33.6269L29.4122 34.1204L28.8869 34.6456C28.5894 34.9433 28.66 35.4432 29.0272 35.6471C30.8535 36.6616 30.8004 36.6632 31.0197 36.6632C31.6685 36.6633 31.8993 35.7936 31.3279 35.4763Z" fill="#18616A"/>
</g>
<defs>
<clipPath id="clip0">
<rect width="38" height="38" fill="white"/>
</clipPath>
</defs>
</svg>
