<svg width="38" height="38" viewBox="0 0 38 38" fill="none" xmlns="http://www.w3.org/2000/svg">
<path d="M6.96106 31.8527C3.56028 29.7408 1.32674 27.4475 1.13214 25.8677C0.933008 24.2516 2.31659 20.3647 4.92806 15.2034C5.06714 14.9286 4.95707 14.593 4.68224 14.454C4.40734 14.3147 4.07187 14.4249 3.93278 14.6998C2.34079 17.846 -0.283734 23.4984 0.0250156 26.0042C0.267043 27.9684 2.58066 30.4456 6.37257 32.8004C6.63019 32.9615 6.97709 32.8848 7.14059 32.6208C7.30313 32.3591 7.22268 32.0152 6.96106 31.8527Z" fill="#18616A"/>
<path d="M37.6377 26.3463C37.1206 24.4862 36.087 22.8327 34.7274 21.6902C34.4915 21.492 34.1397 21.5225 33.9416 21.7584C33.7434 21.9943 33.774 22.3461 34.0098 22.5442C36.4211 24.5705 37.5219 28.3751 36.5158 31.2058C35.8326 33.1282 34.479 34.5243 32.3777 35.4737C31.8474 35.7134 31.2689 35.9225 30.6437 36.1013L29.9095 34.2429C29.7964 33.9564 29.4723 33.8158 29.1858 33.9291C28.8994 34.0423 28.7589 34.3663 28.872 34.6527L29.5514 36.3722C27.4606 36.8187 24.9281 36.9746 21.9811 36.8351C19.1674 36.7021 16.0065 35.9796 12.9066 34.7899L13.9854 33.7238C14.1847 33.5269 14.2069 33.2127 14.0374 32.9896L13.1585 31.8332L14.8469 30.2471C15.0714 30.0362 15.0824 29.6832 14.8716 29.4587C14.6607 29.2342 14.3077 29.2231 14.0832 29.434L12.0287 31.3641C11.8206 31.5596 11.7937 31.8807 11.9665 32.1081L12.853 33.2746L11.7795 34.3355C10.7918 33.918 9.81549 33.454 8.86416 32.9472C8.59237 32.8023 8.25453 32.9053 8.10972 33.1772C7.96485 33.4491 8.06787 33.7869 8.33973 33.9317C12.758 36.2855 17.711 37.75 21.9286 37.9495C22.6395 37.9831 23.3274 37.9999 23.9931 37.9999C27.6471 37.9998 30.616 37.4938 32.8371 36.4903C35.1963 35.4242 36.7877 33.772 37.567 31.5793C38.1189 30.0264 38.144 28.1679 37.6377 26.3463Z" fill="#18616A"/>
<path d="M5.19596 13.4674C5.46753 13.6126 5.80552 13.5102 5.95076 13.2385C8.84626 7.82295 11.5417 3.87488 12.3786 3.3227C13.344 2.68568 15.6346 1.93043 17.9489 1.486C20.6884 0.959868 22.3717 1.05487 22.8249 1.38247C24.0567 2.27287 24.2774 4.75757 23.9632 6.20877C23.6808 7.51294 22.6935 8.93831 21.7957 8.8966C20.3071 8.82542 19.2812 7.75511 19.2724 7.74584C19.085 7.54411 18.7764 7.51071 18.5486 7.66538C18.5315 7.67696 16.8139 8.8177 14.3922 8.284C14.1641 8.23368 13.9288 8.33098 13.8027 8.52766C13.7471 8.61427 12.4423 10.6729 12.4423 12.7393C12.4423 12.9273 12.4457 13.156 12.4497 13.4208C12.4851 15.8027 12.5683 21.3806 10.4164 23.8048C9.96355 24.2922 10.6728 25.0368 11.1816 24.6109C11.2138 24.5851 14.459 22.0301 18.4061 21.7388C20.1664 21.6089 21.5356 21.947 22.3743 22.2537C22.7933 22.4068 23.1245 22.5672 23.3619 22.6967L21.9175 25.0451C21.7452 25.312 21.8553 25.6994 22.1423 25.8358L23.3693 26.4519L22.2315 28.6048C22.0876 28.8771 22.1917 29.2146 22.4641 29.3585C22.7309 29.5011 23.0732 29.4009 23.2178 29.126L24.6217 26.4695C24.7692 26.2036 24.6531 25.8413 24.3788 25.7105L23.1862 25.1117L24.586 22.8358C24.7451 22.6417 26.5383 20.5884 30.6397 21.0763C31.1971 21.1427 31.7386 21.2798 32.2493 21.4839C32.5352 21.5983 32.8599 21.459 32.9742 21.173C33.0885 20.8869 32.9492 20.5624 32.6633 20.4481C32.0622 20.2078 31.4258 20.0466 30.7717 19.9687C26.9363 19.5121 24.8213 21.0469 24.0376 21.7954C23.2114 21.3183 21.2244 20.4122 18.324 20.6265C15.9807 20.7994 13.9057 21.6746 12.4795 22.4536C13.6553 19.4701 13.5946 15.387 13.565 13.4043C13.5612 13.144 13.5578 12.9191 13.5578 12.7394C13.5578 11.4333 14.2221 10.0586 14.5555 9.45086C16.5635 9.77802 18.1012 9.16846 18.7888 8.81281C19.2954 9.23422 20.3472 9.94434 21.7424 10.0111C22.5261 10.0481 23.2883 9.62847 23.9474 8.79611C24.4619 8.14625 24.8754 7.26735 25.0535 6.44508C25.3484 5.08309 25.3514 1.83261 23.4786 0.478634C22.3466 -0.339628 19.3965 0.0722864 17.7387 0.390685C15.2183 0.874739 12.8733 1.6602 11.7645 2.39177C11.1754 2.78045 10.2071 4.0041 8.88686 6.02856C7.64956 7.92567 6.25758 10.2995 4.96737 12.7128C4.82182 12.9843 4.92432 13.3222 5.19596 13.4674Z" fill="#18616A"/>
<path d="M26.8086 13.7403L27.8406 14.1273L26.8472 17.6544C26.6837 18.1709 27.3616 18.5957 27.7551 18.2219L32.7934 13.7295C33.0966 13.4749 33.0103 12.9456 32.6419 12.8005L31.2972 12.2241L34.0008 9.59843C34.2791 9.34297 34.1962 8.84541 33.8502 8.69385L30.0628 6.90696C29.7864 6.77671 29.4567 6.89286 29.3232 7.16769L26.5026 12.9743C26.357 13.2584 26.5074 13.6348 26.8086 13.7403ZM30.0858 8.15117L32.6462 9.35923L29.9199 12.0071C29.6353 12.2679 29.7297 12.7781 30.0887 12.9198L31.3967 13.4804L28.4389 16.1177L29.0533 13.9363C29.1319 13.6573 28.9837 13.3646 28.7123 13.2628L27.7737 12.9109L30.0858 8.15117Z" fill="#18616A"/>
<path d="M21.9927 13.179C21.8123 13.1156 21.6122 13.1491 21.4622 13.2675L20.8595 13.7435L20.1582 11.7266C20.048 11.3798 19.5892 11.2368 19.3017 11.4598L16.8023 13.2919C16.5559 13.4726 16.5006 13.8178 16.6784 14.0663L19.4579 17.9513C19.638 18.2151 20.0405 18.2625 20.277 18.0481L20.7924 17.601L22.6394 19.3997C23.016 19.7898 23.7101 19.3972 23.572 18.8748L22.3513 13.58C22.3084 13.3937 22.1731 13.2424 21.9927 13.179ZM21.2033 16.4441C20.9953 16.2416 20.6673 16.2327 20.4487 16.4223L20.0086 16.804L17.9063 13.8656L19.3523 12.8056L20.0631 14.8501C20.1755 15.2047 20.6502 15.3431 20.9356 15.1046L21.4621 14.6889L22.0589 17.2774L21.2033 16.4441Z" fill="#18616A"/>
</svg>
