<svg width="45" height="45" viewBox="0 0 45 45" fill="none" xmlns="http://www.w3.org/2000/svg">
<path d="M16.7174 6.19153V11.7243C16.7174 12.526 16.2015 13.2404 15.4394 13.4944L7.90636 16.0028C7.90636 16.0028 2.4292 18.019 2.4292 23.385C2.4292 28.7511 2.4292 34.0377 2.4292 34.0377V38.8163" stroke="#18616A" stroke-miterlimit="10" stroke-linecap="round"/>
<path d="M42.7539 28.1796C42.7539 31.5135 42.7539 34.0377 42.7539 34.0377V38.8164" stroke="#18616A" stroke-miterlimit="10" stroke-linecap="round"/>
<path d="M28.4653 6.19153V11.7242C28.4653 12.526 28.9813 13.2404 29.7433 13.4944L37.2764 16.0028C37.2764 16.0028 39.3006 16.7489 40.8881 18.535C41.9121 19.686 42.7535 21.2815 42.7535 23.385" stroke="#18616A" stroke-miterlimit="10" stroke-linecap="round"/>
<path d="M10 26.0004C10 26.0004 10.9065 25.8961 10.9712 28.9206C11.036 31.9451 10.9712 43 10.9712 43" stroke="#18616A" stroke-miterlimit="10" stroke-linecap="round"/>
<path d="M35 26.0004C35 26.0004 34.0935 25.8961 34.0288 28.9206C33.964 31.9451 34.0288 43 34.0288 43" stroke="#18616A" stroke-miterlimit="10" stroke-linecap="round"/>
<path d="M42.7459 26.584C43.1843 26.584 43.5397 26.2286 43.5397 25.7903C43.5397 25.3519 43.1843 24.9965 42.7459 24.9965C42.3075 24.9965 41.9521 25.3519 41.9521 25.7903C41.9521 26.2286 42.3075 26.584 42.7459 26.584Z" fill="#18616A"/>
<path d="M20.7735 13.423C22.0992 13.5817 23.4248 13.7326 24.7504 13.8913C24.0836 15.1455 23.4248 16.3997 22.758 17.6539L25.3299 17.6936L21.9563 23.4565C21.8928 22.1309 21.8372 20.8052 21.7737 19.4796C21.0752 19.4955 20.3766 19.5034 19.686 19.5193C20.0432 17.4872 20.4084 15.4551 20.7735 13.423Z" stroke="#18616A" stroke-miterlimit="10" stroke-linejoin="round"/>
<path d="M26.3222 20.432C28.1638 21.7021 29.3704 23.8215 29.3704 26.2267C29.3704 30.1084 26.227 33.2518 22.3454 33.2518C18.4637 33.2518 15.3203 30.1004 15.3203 26.2267C15.3203 23.766 16.5824 21.6069 18.4955 20.3447" stroke="#18616A" stroke-miterlimit="10" stroke-linejoin="round"/>
<path d="M24.8063 22.7023C25.9494 23.4881 26.6955 24.7979 26.6955 26.2902C26.6955 28.6875 24.7508 30.6402 22.3456 30.6402C19.9404 30.6402 17.9956 28.6954 17.9956 26.2902C17.9956 24.7661 18.7735 23.4326 19.9642 22.6547" stroke="#18616A" stroke-miterlimit="10" stroke-linejoin="round"/>
</svg>
