<svg width="38" height="38" viewBox="0 0 38 38" fill="none" xmlns="http://www.w3.org/2000/svg">
<path d="M13.4707 23.3566C12.9363 23.3566 12.7434 22.9707 12.5133 22.5773C12.2758 22.1691 12.4094 21.6422 12.8176 21.4047C13.2258 21.1672 13.7527 21.3008 13.9902 21.709C14.0645 21.8426 14.1313 21.939 14.1906 22.0355C14.5617 22.6144 14.1387 23.3566 13.4707 23.3566Z" fill="#18616A"/>
<path d="M20.0762 23.3566C19.5418 23.3566 19.3488 22.9707 19.1188 22.5773C18.8813 22.1691 19.0148 21.6422 19.423 21.4047C19.8312 21.1672 20.3582 21.3008 20.5957 21.709C20.6699 21.8426 20.7367 21.939 20.7961 22.0355C21.1672 22.6144 20.7441 23.3566 20.0762 23.3566Z" fill="#18616A"/>
<path d="M17.1742 27.8914C16.6398 27.8914 16.4469 27.5055 16.2168 27.1121C15.9793 26.7039 16.1129 26.177 16.5211 25.9395C16.9293 25.702 17.4562 25.8356 17.6937 26.2438C17.768 26.3773 17.8348 26.4738 17.8941 26.5703C18.2652 27.1418 17.8422 27.8914 17.1742 27.8914Z" fill="#18616A"/>
<path d="M23.6387 29.9621C23.1043 29.9621 22.9113 29.5761 22.6813 29.1828C22.4438 28.7746 22.5773 28.2476 22.9855 28.0101C23.3937 27.7726 23.9207 27.9062 24.1582 28.3144C24.2324 28.448 24.2992 28.5445 24.3586 28.641C24.7297 29.2125 24.3066 29.9621 23.6387 29.9621Z" fill="#18616A"/>
<path d="M20.0762 34.4152C19.5418 34.4152 19.3488 34.0293 19.1188 33.6359C18.8813 33.2277 19.0148 32.7008 19.423 32.4633C19.8312 32.2258 20.3582 32.3594 20.5957 32.7676C20.6699 32.9012 20.7367 32.9976 20.7961 33.0941C21.1672 33.673 20.7441 34.4152 20.0762 34.4152Z" fill="#18616A"/>
<path d="M14.7398 32.6414C14.2054 32.6414 14.0125 32.2555 13.7824 31.8621C13.5449 31.4539 13.6785 30.927 14.0867 30.6895C14.4949 30.452 15.0219 30.5856 15.2593 30.9938C15.3336 31.1273 15.4004 31.2238 15.4597 31.3203C15.8308 31.8918 15.4078 32.6414 14.7398 32.6414Z" fill="#18616A"/>
<path d="M10.2793 28.923C9.74492 28.923 9.55195 28.5371 9.32188 28.1437C9.08438 27.7355 9.21797 27.2086 9.62617 26.9711C10.0344 26.7336 10.5613 26.8672 10.7988 27.2754C10.8731 27.409 10.9398 27.5054 10.9992 27.6019C11.3703 28.1808 10.9473 28.923 10.2793 28.923Z" fill="#18616A"/>
<path d="M18.133 38H16.0326C13.3087 38 10.7408 36.9535 8.78882 35.0609C8.55132 34.8309 8.55132 34.4598 8.77398 34.2223C9.00406 33.9848 9.37515 33.9848 9.61265 34.2074C11.3419 35.8848 13.6205 36.8125 16.0251 36.8125H18.1255C20.8197 36.8125 23.3505 35.766 25.258 33.8586L36.324 22.1988C37.3705 21.0855 36.5541 19.5863 35.2998 19.5863C33.756 19.5863 32.3087 20.1801 31.2103 21.2711L28.0041 25.0711C27.0466 26.2066 24.9314 25.5461 24.9314 23.8465V20.6922C24.9314 20.5734 24.6716 21.5754 28.8427 6.01914C29.1916 4.70547 28.2044 3.40664 26.8314 3.40664C25.9705 3.40664 25.1169 3.94844 24.8201 4.95781L20.7455 19.1633C20.5599 19.8238 19.5802 19.6828 19.5802 19V3.26562C19.5802 1.41016 17.3314 0.497266 16.0326 1.79609C15.6392 2.18945 15.424 2.70898 15.424 3.26562V18.5398C15.424 19.2301 14.4369 19.3637 14.2587 18.6957L10.7556 5.6332C10.6146 5.09883 10.2658 4.64609 9.79077 4.37148C8.41031 3.5625 6.68101 4.5793 6.68101 6.16758C6.68101 6.55352 6.4064 5.41797 10.34 20.1059C10.5181 20.7738 9.59781 21.1523 9.24898 20.5586L4.51382 12.3352C3.61577 10.784 1.18882 11.3926 1.18882 13.2258C1.18882 13.5375 1.27046 13.8418 1.42632 14.1164L4.75874 19.8906C6.11695 22.2285 6.82945 24.9004 6.82945 27.6094C6.82945 28.5 6.95562 29.3758 7.20796 30.2219C7.29702 30.5336 7.1189 30.8676 6.80718 30.9566C6.49546 31.0531 6.16148 30.8676 6.07242 30.5559C5.78296 29.5984 5.64195 28.6113 5.64195 27.6094C5.64195 25.1082 4.9814 22.6441 3.73452 20.4844L0.402103 14.7102C-0.429147 13.2703 0.0978058 11.4594 1.4857 10.6578C2.90327 9.84141 4.72163 10.3238 5.53804 11.7414L8.03179 16.0535L5.60484 7.01367C5.13726 5.26211 6.18374 3.47344 7.91304 3.01328C9.65718 2.5457 11.4459 3.57734 11.9134 5.32148L14.2513 14.0273V3.26562C14.2513 1.47695 15.6986 0 17.5169 0C19.3205 0 20.7826 1.46211 20.7826 3.26562V14.7695L23.6919 4.63125C24.0779 3.20625 25.3693 2.21914 26.8462 2.21914C28.9986 2.21914 30.5572 4.26758 30.0005 6.33086L26.1263 20.7738V23.8539C26.1263 24.3809 26.7498 24.6406 27.1209 24.2918C29.3548 21.6496 30.3345 20.4844 30.3568 20.4621C31.6779 19.141 33.4369 18.4137 35.2998 18.4137C37.6376 18.4137 38.9439 21.2637 37.1775 23.0301C25.7478 35.0758 26.1189 34.6824 26.1115 34.6973C23.9814 36.8273 21.1462 38 18.133 38Z" fill="#18616A"/>
</svg>
