<svg width="46" height="46" viewBox="0 0 46 46" fill="none" xmlns="http://www.w3.org/2000/svg">
<g clip-path="url(#clip0)">
<path d="M18.2647 24.5718C18.6368 24.5718 18.9385 24.2701 18.9385 23.8979V5.40916C18.9385 3.16966 20.7605 1.34768 23.0001 1.34768C25.2395 1.34768 27.0616 3.16966 27.0616 5.40916V8.12251C27.0616 8.49465 27.3632 8.79635 27.7354 8.79635C28.1076 8.79635 28.4093 8.49465 28.4093 8.12251V5.40916C28.4093 2.42655 25.9827 -7.62939e-06 23.0001 -7.62939e-06C20.0175 -7.62939e-06 17.5908 2.42655 17.5908 5.40916V23.8979C17.5908 24.2701 17.8925 24.5718 18.2647 24.5718Z" fill="#18616A"/>
<path d="M29.065 28.7288C28.6482 28.3946 28.4092 27.9056 28.4092 27.3872V10.8179C28.4092 10.4457 28.1076 10.144 27.7353 10.144C27.3631 10.144 27.0615 10.4457 27.0615 10.8179V27.3872C27.0615 28.3166 27.4845 29.1889 28.2218 29.7801C30.2117 31.3761 31.3529 33.7522 31.3529 36.2994C31.3529 38.5526 30.4692 40.6648 28.8649 42.2471C27.2608 43.829 25.1343 44.6807 22.8808 44.6515C18.3827 44.5889 14.6893 40.8777 14.6474 36.3789C14.6234 33.7973 15.7667 31.3904 17.784 29.7755C18.5176 29.188 18.9384 28.3177 18.9384 27.3875V26.5932C18.9384 26.2211 18.6367 25.9194 18.2646 25.9194C17.8924 25.9194 17.5907 26.2211 17.5907 26.5932V27.3875C17.5907 27.9062 17.3542 28.3931 16.9417 28.7234C14.5993 30.5985 13.2718 33.3935 13.2997 36.3914C13.3232 38.928 14.3293 41.3227 16.1325 43.1346C17.9357 44.9464 20.3256 45.9638 22.8619 45.999C22.9084 45.9997 22.9547 46 23.0012 46C25.5675 46 27.9813 45.0112 29.8111 43.2066C31.6744 41.3691 32.7005 38.9161 32.7005 36.2994C32.7006 33.3414 31.3755 30.5819 29.065 28.7288Z" fill="#18616A"/>
<path d="M24.7569 3.58411C24.256 3.10182 23.5973 2.85052 22.9028 2.87694C21.5363 2.9286 20.4659 4.06092 20.4659 5.45488V28.8929C20.4659 29.4869 20.1641 30.0279 19.6586 30.3399L19.4212 30.4866C17.3659 31.7555 16.1524 33.9529 16.1749 36.3646C16.2089 40.0407 19.2267 43.073 22.9021 43.1242C22.935 43.1247 23.0003 43.1249 23.0003 43.1249C24.9531 43.1249 26.7527 42.325 28.0675 40.8726C29.1166 39.7137 29.7377 38.2155 29.8166 36.6541C29.9424 34.1605 28.7018 31.7972 26.579 30.4866L26.3413 30.3399C25.8359 30.0278 25.5342 29.4869 25.5342 28.8928V5.40915C25.5342 4.71491 25.2581 4.06676 24.7569 3.58411ZM22.9537 4.22363C22.9692 4.2231 22.9846 4.22274 23 4.22274C23.3082 4.22274 23.5986 4.33972 23.8222 4.5549C24.057 4.78113 24.1865 5.08454 24.1865 5.40915V8.29662H21.8137V5.45479C21.8136 4.79964 22.3251 4.24735 22.9537 4.22363ZM25.6333 31.4866L25.8709 31.6334C27.6013 32.7017 28.5731 34.5533 28.4707 36.5862C28.4074 37.8379 27.9094 39.039 27.0684 39.9682C26.0124 41.1348 24.5677 41.7773 23.0024 41.7773C23.0024 41.7773 22.948 41.7772 22.9216 41.7768C19.9723 41.7357 17.5499 39.3023 17.5226 36.3523C17.5046 34.4164 18.479 32.6523 20.1294 31.6335L20.3669 31.4868C21.2729 30.9274 21.8138 29.9578 21.8138 28.893V9.6444H24.1866V11.1348H23.674C23.3018 11.1348 23.0002 11.4366 23.0002 11.8087C23.0002 12.1808 23.3018 12.4825 23.674 12.4825H24.1866V14.3685H23.674C23.3018 14.3685 23.0002 14.6702 23.0002 15.0423C23.0002 15.4145 23.3018 15.7162 23.674 15.7162H24.1866V17.6021H23.674C23.3018 17.6021 23.0002 17.9038 23.0002 18.276C23.0002 18.6481 23.3018 18.9498 23.674 18.9498H24.1866V20.8358H23.674C23.3018 20.8358 23.0002 21.1375 23.0002 21.5096C23.0002 21.8818 23.3018 22.1835 23.674 22.1835H24.1866V24.0694H23.674C23.3018 24.0694 23.0002 24.3711 23.0002 24.7433C23.0002 25.1154 23.3018 25.4171 23.674 25.4171H24.1866V28.893C24.1865 29.9577 24.7274 30.9273 25.6333 31.4866Z" fill="#18616A"/>
</g>
<defs>
<clipPath id="clip0">
<rect width="46" height="46" fill="white"/>
</clipPath>
</defs>
</svg>
