<svg width="37" height="37" viewBox="0 0 37 37" fill="none" xmlns="http://www.w3.org/2000/svg">
<path d="M15.7164 5.24097C13.8562 7.02929 12.8511 9.56818 12.0614 12.0418C11.598 13.4973 11.1868 14.9723 10.6386 16.4017C10.123 17.7462 9.40501 18.8883 8.67402 20.1088C8.48474 20.4221 8.38684 20.8464 8.58917 21.1531C9.09826 21.9102 10.8148 21.8906 11.5849 21.7862C11.8199 23.0916 12.0483 24.2011 12.2311 25.0626C12.6814 27.1708 12.8968 27.6276 13.2688 28.1693C13.7583 28.8808 14.646 29.3768 15.4618 29.6052C15.6641 29.664 18.0072 29.8728 17.942 29.5334C18.2553 31.1912 18.5685 32.849 18.8818 34.5133C23.3135 34.4872 27.7517 34.4611 32.1833 34.4285C31.7525 31.9875 31.3283 29.5465 30.8975 27.1055C30.8519 26.8444 30.8062 26.5703 30.8649 26.3092C30.9236 26.0482 31.0868 25.8197 31.2369 25.5978C31.2369 25.5978 32.4183 24.0379 33.0318 22.8892C33.6453 21.7405 33.5213 21.9037 33.5213 21.9037" stroke="#18616A" stroke-miterlimit="10" stroke-linecap="round" stroke-linejoin="round"/>
<path d="M17.5308 3.90302C18.5294 3.34825 19.6258 2.96317 20.7419 2.71516C23.3461 2.1408 26.133 2.3105 28.6066 3.32214C31.0802 4.33378 33.208 6.20695 34.4154 8.58921C35.786 11.2978 35.9035 14.5155 35.1855 17.4656C34.9832 18.2879 34.7222 19.0972 34.4154 19.8804" stroke="#18616A" stroke-miterlimit="10" stroke-linecap="round" stroke-linejoin="round"/>
<path d="M7.72121 24.162C7.72121 24.162 7.17296 26.7923 8.98086 27.9083" stroke="#18616A" stroke-miterlimit="10" stroke-linecap="round" stroke-linejoin="round"/>
<path d="M4.64709 22.8696C4.64709 22.8696 3.41354 28.7893 7.47969 31.2956" stroke="#18616A" stroke-miterlimit="10" stroke-linecap="round" stroke-linejoin="round"/>
<path d="M1.54695 21.5577C1.54695 21.5577 -0.339273 30.6429 5.89375 34.4937" stroke="#18616A" stroke-miterlimit="10" stroke-linecap="round" stroke-linejoin="round"/>
<path d="M2.46045 2.38879L35.9882 34.4872" stroke="#18616A" stroke-miterlimit="10" stroke-linecap="round" stroke-linejoin="round"/>
</svg>
