<svg width="40" height="40" viewBox="0 0 40 40" fill="none" xmlns="http://www.w3.org/2000/svg">
<g clip-path="url(#clip0)">
<path d="M1.64422 25.7291C0.74875 25.7291 0.0202789 26.4577 0.0202789 27.3531C0.0202789 28.2484 0.748828 28.977 1.64422 28.977C2.5396 28.977 3.26815 28.2485 3.26815 27.3531C3.26815 26.4576 2.53968 25.7291 1.64422 25.7291ZM1.64422 27.8032C1.39599 27.8032 1.1941 27.6012 1.1941 27.3531C1.1941 27.1048 1.39607 26.9029 1.64422 26.9029C1.89236 26.9029 2.09433 27.1049 2.09433 27.3531C2.09433 27.6012 1.89244 27.8032 1.64422 27.8032Z" fill="#18616A"/>
<path d="M8.4119 25.2688L6.91505 24.6409C6.61627 24.5156 6.27226 24.6563 6.14682 24.9552C6.02146 25.2541 6.16216 25.5981 6.46109 25.7234L7.95795 26.3512C8.03213 26.3823 8.10906 26.397 8.18473 26.397C8.41409 26.397 8.63187 26.2617 8.72617 26.037C8.85146 25.7381 8.71075 25.3941 8.4119 25.2688Z" fill="#18616A"/>
<path d="M7.95787 28.3549L6.46102 28.9827C6.16208 29.1081 6.02138 29.452 6.14674 29.751C6.24104 29.9758 6.4589 30.111 6.68819 30.111C6.76386 30.111 6.84086 30.0963 6.91497 30.0651L8.41182 29.4374C8.71076 29.3119 8.85146 28.968 8.7261 28.6692C8.60065 28.3701 8.25649 28.2298 7.95787 28.3549Z" fill="#18616A"/>
<path d="M6.30232 27.3531C6.30232 27.0289 6.03954 26.7662 5.71541 26.7662H5.06997C4.74584 26.7662 4.48306 27.0289 4.48306 27.3531C4.48306 27.6772 4.74584 27.94 5.06997 27.94H5.71541C6.03954 27.94 6.30232 27.6772 6.30232 27.3531Z" fill="#18616A"/>
<path d="M1.58255 22.726L2.39233 23.0375C2.46159 23.0642 2.5328 23.0768 2.60291 23.0768C2.8387 23.0768 3.06109 22.9336 3.15077 22.7004C3.26714 22.3978 3.11626 22.0583 2.81365 21.9419L2.00388 21.6305C1.70142 21.5139 1.36172 21.665 1.24543 21.9676C1.12907 22.27 1.27994 22.6096 1.58255 22.726Z" fill="#18616A"/>
<path d="M2.36276 31.6737L1.55087 31.9796C1.24755 32.0939 1.09433 32.4325 1.20858 32.7358C1.29716 32.971 1.52058 33.1159 1.75793 33.1159C1.82663 33.1159 1.89659 33.1037 1.96475 33.078L2.77664 32.772C3.07996 32.6578 3.23318 32.3192 3.11893 32.0159C3.00468 31.7126 2.66599 31.5593 2.36276 31.6737Z" fill="#18616A"/>
<path d="M20.3469 31.2873H12.2536C11.4825 31.2873 10.8551 30.6599 10.8551 29.8888V28.8342H12.7013C13.2793 28.8342 13.7496 28.3639 13.7496 27.7858V26.5017C13.7496 26.0382 13.4519 25.6355 13.0089 25.4995L10.3649 24.6878C10.3452 24.6818 10.332 24.6639 10.332 24.6433V21.6212C10.332 21.4038 10.2118 21.2041 10.0197 21.1025L8.18354 20.1333L10.4358 16.2063C10.596 15.9268 10.6807 15.6089 10.6807 15.2868V10.8868C10.6807 9.79957 11.1293 8.74298 11.9114 7.98782L12.3536 7.56079H14.6256C17.5035 7.56079 19.8448 9.90209 19.8448 12.78V12.7924C19.8448 13.1165 20.1076 13.3793 20.4317 13.3793C20.7558 13.3793 21.0186 13.1165 21.0186 12.7924V12.78C21.0186 9.25484 18.1507 6.38697 14.6256 6.38697H12.2226C11.0433 6.38697 10.0837 5.42742 10.0837 4.24804V1.45264C10.0837 1.29895 10.2088 1.17382 10.3625 1.17382H23.3105C26.2832 1.17382 29.1708 2.01771 31.6614 3.61426C31.9342 3.78916 32.2972 3.70989 32.4722 3.43686C32.6471 3.16398 32.5677 2.80096 32.2948 2.62606C29.615 0.908065 26.5083 0 23.3107 0H10.3627C9.56176 0 8.91006 0.651625 8.91006 1.45264V4.24812C8.91006 5.62016 9.74855 6.79992 10.9399 7.30224C10.0271 8.26383 9.50698 9.55737 9.50698 10.8868V15.2868C9.50698 15.4043 9.47607 15.5203 9.41761 15.6223L7.16537 19.5493C7.00597 19.8272 6.96723 20.1497 7.05621 20.4575C7.14526 20.7653 7.35021 21.0174 7.63333 21.1673L9.1582 21.9746V24.6433C9.1582 25.1828 9.50471 25.6517 10.0205 25.81L12.5759 26.5944V27.6604H10.6538C10.1176 27.6604 9.68133 28.0966 9.68133 28.6328V29.8888C9.68133 31.3072 10.8353 32.4611 12.2536 32.4611H16.45V39.4131C16.45 39.7372 16.7128 40 17.0369 40C17.3611 40 17.6238 39.7372 17.6238 39.4131V32.4611H20.3469C20.671 32.4611 20.9338 32.1983 20.9338 31.8742C20.9338 31.5501 20.6711 31.2873 20.3469 31.2873Z" fill="#18616A"/>
<path d="M34.3798 4.20719C34.1375 3.99176 33.7665 4.01375 33.5512 4.25594C33.3359 4.49822 33.3577 4.86915 33.6 5.0845C36.9084 8.0253 38.8059 12.2478 38.8059 16.6691C38.8059 17.7724 38.6878 18.8622 38.4602 19.9224L36.4167 19.7009C36.0947 19.6662 35.8049 19.8989 35.7699 20.2211C35.735 20.5434 35.9679 20.8329 36.2901 20.8679L38.1666 21.0713C37.3413 23.8559 35.7416 26.3832 33.5097 28.3345L30.6153 30.8651C30.4455 31.0136 30.228 31.0871 30.0026 31.0718C29.7774 31.0564 29.5717 30.9542 29.4235 30.784L25.7962 26.6183C25.4936 26.2709 25.5277 25.7392 25.8723 25.4332L28.0097 23.5349C28.6669 22.9513 29.0438 22.1125 29.0438 21.2336V20.0824L33.732 20.5906C33.7534 20.593 33.7748 20.5941 33.7959 20.5941C34.0916 20.5941 34.346 20.3711 34.3787 20.0704C34.4136 19.7481 34.1807 19.4586 33.8584 19.4236L28.8839 18.8844C28.4745 17.6648 27.3215 16.7833 25.9658 16.7833C24.2686 16.7833 22.8878 18.1641 22.8878 19.8613V21.5354L21.0455 22.8515C21.0405 22.8551 21.0382 22.8557 21.0382 22.8557C21.0338 22.8565 21.0217 22.8504 21.0195 22.8461C21.0195 22.8461 21.0186 22.8437 21.0186 22.8376V15.2937C21.0186 14.9696 20.7558 14.7068 20.4317 14.7068C20.1076 14.7068 19.8448 14.9696 19.8448 15.2937V22.8376C19.8448 23.2857 20.0923 23.6914 20.4907 23.8965C20.8892 24.1016 21.3632 24.0671 21.7278 23.8066L23.8159 22.3149C23.9701 22.2047 24.0616 22.0268 24.0616 21.8373V19.8612C24.0616 18.8113 24.9158 17.957 25.9658 17.957C26.9051 17.957 27.6873 18.641 27.8417 19.5369C27.8417 19.537 27.8417 19.5372 27.8418 19.5373C27.8599 19.6426 27.8699 21.2335 27.8699 21.2335C27.8699 21.7773 27.6367 22.2962 27.2301 22.6572L25.0927 24.5555C24.2689 25.2871 24.1874 26.5582 24.9108 27.389L28.5382 31.5548C28.7024 31.7434 28.8964 31.8966 29.1106 32.0108V39.413C29.1106 39.7371 29.3734 39.9999 29.6975 39.9999C30.0216 39.9999 30.2844 39.7371 30.2844 39.413V32.234C30.6908 32.1893 31.0736 32.0235 31.3879 31.7488L34.2823 29.2182C37.903 26.0525 39.9797 21.4786 39.9797 16.6691C39.9798 11.9127 37.9387 7.37047 34.3798 4.20719Z" fill="#18616A"/>
</g>
<defs>
<clipPath id="clip0">
<rect width="40" height="40" fill="white"/>
</clipPath>
</defs>
</svg>
